<svg width="152" height="161" viewBox="0 0 152 161" fill="none" xmlns="http://www.w3.org/2000/svg">
<path d="M10.7375 106.419C12.7271 106.421 14.6725 105.832 16.3278 104.729C17.9831 103.625 19.2739 102.055 20.0369 100.218C20.8 98.3802 21.0011 96.3578 20.6148 94.4061C20.2285 92.4544 19.2721 90.6611 17.8666 89.253C16.461 87.8448 14.6695 86.8851 12.7186 86.4951C10.7676 86.1052 8.7448 86.3025 6.90598 87.0622C5.06716 87.8218 3.4949 89.1097 2.38802 90.7629C1.28114 92.4161 0.689359 94.3605 0.687504 96.35C0.686273 97.671 0.945247 98.9793 1.44964 100.2C1.95403 101.421 2.69397 102.531 3.6272 103.466C4.56043 104.401 5.66867 105.143 6.88866 105.649C8.10865 106.156 9.41649 106.418 10.7375 106.419Z" fill="#AD9961"/>
<path d="M118.688 49.0563C118.687 50.3126 119.059 51.5408 119.757 52.5856C120.454 53.6304 121.446 54.4448 122.607 54.9257C123.767 55.4066 125.045 55.5325 126.277 55.2873C127.509 55.0421 128.641 54.437 129.529 53.5484C130.417 52.6598 131.021 51.5278 131.266 50.2955C131.511 49.0632 131.384 47.7861 130.903 46.6257C130.421 45.4653 129.606 44.4739 128.561 43.7767C127.516 43.0796 126.288 42.7081 125.031 42.7094C123.349 42.711 121.736 43.3803 120.546 44.5703C119.357 45.7603 118.688 47.3737 118.688 49.0563Z" fill="#AD9961"/>
<path d="M116.691 15.45L110.181 13.8156C109.105 13.5488 108.122 12.9934 107.339 12.2092C106.555 11.425 106 10.4418 105.734 9.36563L104.097 2.85625C104.086 2.81399 104.061 2.77655 104.027 2.74982C103.992 2.72309 103.95 2.70859 103.906 2.70859C103.863 2.70859 103.82 2.72309 103.786 2.74982C103.751 2.77655 103.726 2.81399 103.716 2.85625L102.081 9.36563C101.814 10.4419 101.259 11.425 100.475 12.2092C99.6906 12.9933 98.7075 13.5487 97.6312 13.8156L91.1218 15.45C91.0795 15.4609 91.0421 15.4856 91.0154 15.5201C90.9886 15.5546 90.9741 15.597 90.9741 15.6406C90.9741 15.6843 90.9886 15.7267 91.0154 15.7612C91.0421 15.7957 91.0795 15.8203 91.1218 15.8313L97.6312 17.4656C98.7072 17.732 99.6902 18.2868 100.474 19.0704C101.259 19.854 101.814 20.8366 102.081 21.9125L103.716 28.4219C103.724 28.4665 103.747 28.5069 103.782 28.536C103.817 28.565 103.861 28.581 103.906 28.581C103.952 28.581 103.995 28.565 104.03 28.536C104.065 28.5069 104.089 28.4665 104.097 28.4219L105.734 21.9125C106.001 20.8374 106.557 19.8556 107.34 19.0725C108.124 18.2895 109.106 17.735 110.181 17.4688L116.691 15.8344C116.737 15.8284 116.78 15.8056 116.811 15.7702C116.843 15.7348 116.86 15.6893 116.86 15.6422C116.86 15.5951 116.843 15.5495 116.811 15.5142C116.78 15.4788 116.737 15.456 116.691 15.45Z" fill="#AD9961"/>
<path d="M45.8562 117.834L40.3239 116.445C39.4094 116.218 38.5741 115.745 37.9081 115.079C37.2421 114.412 36.7707 113.576 36.5446 112.661L35.1529 107.126C35.1436 107.09 35.1226 107.058 35.0933 107.035C35.064 107.012 35.0279 107 34.9908 107C34.9538 107 34.9177 107.012 34.8884 107.035C34.8591 107.058 34.8381 107.09 34.8288 107.126L33.4398 112.661C33.2129 113.576 32.7409 114.412 32.0745 115.079C31.4081 115.745 30.5725 116.218 29.6578 116.445L24.1255 117.834C24.0896 117.844 24.0578 117.865 24.035 117.894C24.0123 117.923 24 117.959 24 117.996C24 118.034 24.0123 118.07 24.035 118.099C24.0578 118.128 24.0896 118.149 24.1255 118.159L29.6578 119.548C30.5723 119.775 31.4078 120.247 32.0742 120.913C32.7406 121.579 33.2128 122.415 33.4398 123.33L34.8288 128.865C34.8357 128.903 34.8557 128.937 34.8853 128.962C34.915 128.986 34.9523 129 34.9908 129C35.0294 129 35.0668 128.986 35.0964 128.962C35.126 128.937 35.146 128.903 35.1529 128.865L36.5446 123.33C36.7715 122.415 37.2434 121.581 37.9093 120.915C38.5753 120.249 39.4101 119.777 40.3239 119.551L45.8562 118.161C45.8959 118.156 45.9325 118.137 45.9589 118.107C45.9854 118.077 46 118.038 46 117.998C46 117.958 45.9854 117.919 45.9589 117.889C45.9325 117.859 45.8959 117.839 45.8562 117.834Z" fill="#AD9961"/>
<path d="M75.2406 67.7688L92.0406 73.4656C94.06 74.15 96.2157 74.3321 98.3213 73.9961C100.427 73.6601 102.419 72.8163 104.125 71.5375L112.25 65.5C112.894 65.0215 113.331 64.3164 113.475 63.5273C113.618 62.7383 113.456 61.9242 113.022 61.25C102.997 45.9094 90.8062 32.6219 76.9844 22.0219C75.075 20.5531 72.6562 22.6469 73.2781 25.2375C74.4531 30.1854 75.4437 35.2146 76.25 40.325C76.675 43.1 73.8187 44.8312 72.1031 42.8719C54.9625 23.2125 33.7375 8.48438 10.0625 0.615625C7.63124 -0.184375 5.85312 3.34375 7.64687 5.43125C20.2687 20.2562 30.5875 37.7906 37.9344 57.2219C38.8 59.5406 36.9062 61.9719 34.8656 61.1406C29.5806 58.9478 24.1511 57.1205 18.6156 55.6719C16.0406 54.9844 14.5062 58.9375 16.625 60.8125C29.0344 71.9156 39.8906 85.3344 48.725 100.472C52.0537 106.164 55.0574 112.04 57.7219 118.072C57.8531 118.384 58.3156 118.641 58.5312 118.312L62.375 113.312C63.647 111.604 64.4852 109.611 64.8178 107.507C65.1504 105.403 64.9673 103.249 64.2844 101.231L58.5719 84.4375C55.0625 74.1188 64.9219 64.25 75.2406 67.7688Z" fill="#AD9961"/>
<path d="M94.3126 136.243L94.3049 136.233C93.7252 135.423 92.9563 134.766 92.0652 134.321C91.1788 133.879 90.1981 133.658 89.2076 133.678L63.1636 133.991L63.1606 133.991C62.9501 133.994 62.743 133.937 62.5628 133.829C62.3826 133.72 62.2364 133.563 62.1407 133.375C62.0451 133.188 62.0038 132.977 62.0216 132.767C62.0394 132.558 62.1153 132.358 62.2409 132.189C62.2411 132.189 62.2412 132.189 62.2414 132.188L77.8322 111.311C77.8326 111.311 77.833 111.31 77.8334 111.309C78.4297 110.513 78.822 109.582 78.9761 108.599C79.1298 107.617 79.0416 106.614 78.7192 105.674C78.7183 105.672 78.7174 105.669 78.7165 105.666L75.471 96.0796L75.4709 96.0794L70.3615 80.9919L70.3596 80.9863C70.2918 80.7877 70.281 80.574 70.3283 80.3695C70.3756 80.165 70.4791 79.9778 70.6272 79.8291L68.8563 78.0654L70.6272 79.8291C70.7753 79.6804 70.9621 79.5761 71.1664 79.5279C71.37 79.48 71.5829 79.4897 71.7811 79.5561C71.7819 79.5563 71.7826 79.5566 71.7833 79.5568L87.6959 84.961L87.6967 84.9612L96.4654 87.9362L96.4731 87.9388L96.4808 87.9414C97.4153 88.2517 98.4105 88.334 99.3833 88.1814C100.356 88.0289 101.278 87.6459 102.073 87.0645L102.083 87.0574L102.092 87.0502L116.394 76.3729L116.395 76.3721L120.166 73.5604L121.172 72.8106V72.7973L122.976 71.4564L122.98 71.453C123.149 71.3273 123.349 71.2513 123.558 71.2334C123.767 71.2156 123.978 71.2568 124.165 71.3523C124.352 71.4478 124.508 71.5938 124.617 71.7737L126.758 70.4834L124.617 71.7738C124.725 71.9537 124.781 72.1604 124.778 72.3705L124.778 72.3763L124.466 98.4272C124.466 98.4279 124.466 98.4286 124.466 98.4294C124.452 99.4238 124.681 100.407 125.133 101.292L127.36 100.156L125.133 101.292C125.585 102.177 126.245 102.938 127.056 103.51C127.057 103.51 127.057 103.51 127.057 103.51C127.058 103.511 127.06 103.513 127.062 103.514L148.331 118.554L148.332 118.554C148.503 118.675 148.637 118.841 148.718 119.034C148.8 119.227 148.825 119.438 148.793 119.645C148.76 119.852 148.67 120.045 148.533 120.204C148.397 120.362 148.219 120.479 148.02 120.541C148.019 120.541 148.019 120.541 148.018 120.541L123.12 128.281L123.113 128.284L123.107 128.286C122.166 128.584 121.312 129.103 120.614 129.8L122.38 131.569L120.614 129.8C119.916 130.497 119.395 131.351 119.096 132.291L119.093 132.299L119.091 132.308L111.353 157.192L111.351 157.198C111.29 157.398 111.173 157.577 111.015 157.714L112.655 159.602L111.015 157.714C110.857 157.852 110.664 157.942 110.457 157.975C110.25 158.008 110.038 157.983 109.845 157.902C109.652 157.821 109.485 157.687 109.364 157.516L94.3126 136.243Z" stroke="#AD9961" stroke-width="5"/>
<path d="M96.9832 128.084L106.167 141.068C106.406 141.405 106.734 141.668 107.114 141.828C107.494 141.987 107.912 142.037 108.319 141.972C108.726 141.907 109.107 141.729 109.419 141.458C109.73 141.188 109.96 140.835 110.081 140.441L114.802 125.254C114.91 124.913 115.099 124.603 115.352 124.35C115.605 124.097 115.915 123.909 116.256 123.801L131.448 119.077C131.841 118.954 132.193 118.724 132.462 118.412C132.732 118.1 132.909 117.718 132.973 117.311C133.037 116.904 132.986 116.487 132.826 116.107C132.666 115.727 132.402 115.399 132.066 115.161L119.086 105.98C118.792 105.774 118.554 105.499 118.39 105.179C118.227 104.859 118.145 104.505 118.15 104.146L118.34 88.2439C118.346 87.8308 118.236 87.4243 118.023 87.0704C117.81 86.7166 117.502 86.4295 117.134 86.2417C116.766 86.0539 116.353 85.9729 115.942 86.008C115.53 86.043 115.137 86.1926 114.806 86.4398L113.09 87.7157V87.7252L110.788 89.4416L102.062 95.9584C101.774 96.1695 101.439 96.3086 101.086 96.364C100.732 96.4195 100.371 96.3896 100.032 96.2769L94.682 94.4613L84.97 91.1619C84.579 91.0302 84.1589 91.0105 83.7572 91.1051C83.3556 91.1998 82.9884 91.4049 82.6972 91.6974C82.4061 91.9898 82.2025 92.3579 82.1095 92.7601C82.0166 93.1622 82.0379 93.5824 82.1712 93.973L85.2884 103.181L87.2712 109.04C87.3881 109.379 87.4202 109.741 87.3647 110.096C87.3092 110.45 87.1678 110.785 86.9528 111.073L77.4391 123.816C77.1922 124.147 77.0428 124.541 77.0079 124.953C76.973 125.364 77.054 125.778 77.2416 126.146C77.4293 126.514 77.7161 126.822 78.0698 127.036C78.4234 127.249 78.8297 127.359 79.2427 127.354L95.1395 127.163C95.4986 127.155 95.8543 127.234 96.1756 127.395C96.4969 127.555 96.7742 127.792 96.9832 128.084Z" fill="#AD9961"/>
</svg>
