<svg width="162" height="162" viewBox="0 0 162 162" fill="none" xmlns="http://www.w3.org/2000/svg">
<path d="M49.0444 102.473C47.2361 100.665 44.86 99.7603 42.4842 99.7603C40.1081 99.7603 37.7331 100.664 35.9244 102.473C34.1721 104.226 33.2073 106.555 33.2073 109.033C33.2073 111.512 34.1721 113.841 35.9244 115.594L46.4204 126.09C48.1727 127.842 50.5025 128.807 52.9806 128.807C55.4584 128.807 57.7885 127.842 59.5405 126.09C61.2928 124.337 62.258 122.008 62.258 119.53C62.258 117.051 61.2928 114.722 59.5408 112.97L49.0444 102.473Z" fill="#AD9961"/>
<path d="M6.58978 137.248C3.24103 139.415 1.07941 142.932 0.659328 146.899C0.23925 150.865 1.61564 154.758 4.43595 157.578C7.25626 160.398 11.1487 161.776 15.1149 161.355C19.0812 160.934 22.5991 158.773 24.7659 155.424L42.7354 127.653L34.3606 119.278L6.58978 137.248Z" fill="#AD9961"/>
<path d="M132.103 29.9112C123.584 21.3931 112.259 16.7021 100.213 16.7021C88.1669 16.7021 76.8415 21.3931 68.3234 29.9112C50.7395 47.4955 50.7395 76.1065 68.3234 93.6908C85.9077 111.274 114.519 111.274 132.103 93.6908C149.686 76.1065 149.686 47.4955 132.103 29.9112ZM122.503 80.3317C123.227 81.0561 123.227 82.231 122.503 82.9554C122.14 83.3179 121.666 83.499 121.191 83.499C120.716 83.499 120.241 83.3179 119.878 82.9554L100.78 63.8574L81.6824 82.9554C81.3199 83.3179 80.8452 83.499 80.3702 83.499C79.8952 83.499 79.4206 83.3179 79.0581 82.9554C78.3333 82.231 78.3333 81.0561 79.0581 80.3317L98.1564 61.2334L79.0581 42.1351C78.3333 41.4107 78.3333 40.2358 79.0581 39.5114C79.7828 38.7867 80.9573 38.7867 81.6821 39.5114L100.78 58.6098L119.878 39.5118C120.603 38.787 121.778 38.787 122.502 39.5118C123.227 40.2362 123.227 41.4111 122.502 42.1354L103.404 61.2338L122.503 80.3317Z" fill="#AD9961"/>
<path d="M143.51 18.5045C131.945 6.93976 116.568 0.570679 100.213 0.570679C83.8578 0.570679 68.4815 6.93976 56.9168 18.5045C45.3516 30.0697 38.9825 45.4459 38.9825 61.8011C38.9825 78.1545 45.3505 93.5293 56.9131 105.094L56.9205 105.101C68.4849 116.664 83.8597 123.032 100.213 123.032C116.568 123.032 131.945 116.663 143.51 105.098C167.383 81.2238 167.383 42.3785 143.51 18.5045ZM134.727 96.3147C125.211 105.83 112.712 110.588 100.213 110.588C87.7138 110.588 75.215 105.83 65.6994 96.3147C46.6686 77.2839 46.6686 46.3184 65.6994 27.2876C74.9185 18.0685 87.1758 12.9916 100.213 12.9916C113.251 12.9916 125.508 18.0689 134.727 27.2876C153.757 46.3184 153.757 77.2836 134.727 96.3147Z" fill="#AD9961"/>
</svg>
